<?xml version="1.0" encoding="UTF-8"?>
<svg xmlns="http://www.w3.org/2000/svg" viewBox="0 0 200 200" role="img">
  <defs>
    <radialGradient id="bg" cx="50%" cy="50%" r="55%">
      <stop offset="0%" stop-color="hsl(87,45%,12%)"/>
      <stop offset="100%" stop-color="hsl(87,55%,4%)"/>
    </radialGradient>
    <filter id="glow"><feGaussianBlur stdDeviation="2"/></filter>
  </defs>
  <rect width="200" height="200" fill="url(#bg)"/>
  <g filter="url(#glow)" opacity="0.55"><circle cx="100" cy="100" r="30" fill="none" stroke="#ffbe0b" stroke-width="0.6" opacity="0.55"/><circle cx="100" cy="100" r="48" fill="none" stroke="#ffbe0b" stroke-width="0.6" opacity="0.45"/><circle cx="100" cy="100" r="66" fill="none" stroke="#ffbe0b" stroke-width="0.6" opacity="0.35"/></g>
  <polygon points="130.0,53.9 154.9,102.9 125.0,149.0 70.0,146.1 45.1,97.1 75.0,51.0" fill="none" stroke="#fb5607" stroke-width="2.2" opacity="0.85"/>
  <polygon points="130.0,53.9 154.9,102.9 125.0,149.0 70.0,146.1 45.1,97.1 75.0,51.0" fill="#b03c00" opacity="0.18"/>
  <rect x="90" y="90" width="20" height="20" fill="#ffbe0b" transform="rotate(45 100 100)"/>
  <g><circle cx="124.4" cy="154.8" r="2" fill="#ffbe0b" opacity="0.7"/><circle cx="69.6" cy="159.7" r="2" fill="#ffbe0b" opacity="0.7"/><circle cx="27.6" cy="115.4" r="2" fill="#ffbe0b" opacity="0.7"/><circle cx="37.1" cy="49.0" r="2" fill="#ffbe0b" opacity="0.7"/><circle cx="100.0" cy="12.0" r="2" fill="#ffbe0b" opacity="0.7"/><circle cx="150.5" cy="59.1" r="2" fill="#ffbe0b" opacity="0.7"/><circle cx="170.4" cy="115.0" r="2" fill="#ffbe0b" opacity="0.7"/></g>
</svg>
